<?xml version="1.0" encoding="utf-8"?>
<!-- Generator: Adobe Illustrator 27.6.1, SVG Export Plug-In . SVG Version: 6.00 Build 0)  -->
<svg version="1.1" id="Layer_1" xmlns="http://www.w3.org/2000/svg" xmlns:xlink="http://www.w3.org/1999/xlink" x="0px" y="0px"
	 viewBox="0 0 912 583" style="enable-background:new 0 0 912 583;" xml:space="preserve">
<style type="text/css">
	.st0{fill:#FFFFFF;}
</style>
<g>
	<g>
		<path class="st0" d="M72.6,583l-3.3-8.4H3.5L0.2,583H0v-33.5c0-16.6,5.6-26.9,17.3-26.9c9,0,14.2,7.4,16.2,18.4
			c1.7-14.8,9-23.6,20-23.6c12.6,0,19.5,10.7,19.5,28.1V583H72.6z M32.9,553.5c0-10.3-4.6-18.6-15.6-18.6S1.7,543,1.7,553.3v9.5H33
			L32.9,553.5L32.9,553.5z M71.2,549.2c0-11.1-6.8-19.2-17.8-19.2s-18.9,9.8-18.9,22.4v10.4h36.7V549.2z"/>
		<path class="st0" d="M20.3,477.1c0-12.3,6-23.4,16.2-27v46c2.2,0.6,4.5,0.9,6.8,0.9c12.8,0,21.8-10.9,21.8-24
			c0-11.8-7.3-21.9-17.1-23.9v-0.4c13.9,0.2,25.5,13.1,25.5,29.1s-11.3,29.1-26.4,29.1C31.3,507.1,20.3,493.8,20.3,477.1z
			 M34.9,461.7c-7.9,2.6-13,8.2-13,15.7c0,7.6,4.8,15.1,13,18.3V461.7z"/>
		<path class="st0" d="M20.5,424.1l0.8-22.2c0.3-8.3,6.3-14.9,13.3-14.7l35.6,1.2l3.6-8.3h0.3l-0.7,19.8L58,399.4
			c8.1,2.1,15.6,10.9,15.3,21.1c-0.3,10.3-5.4,17.5-14,17.2c-7.1-0.2-11.3-5.8-13.2-11.8l-5.7-18.6c-1.7-5.4-4.8-8.9-9.3-9.1
			c-4.7-0.2-8.4,3.9-8.6,10.1l-0.3,10l13.1,6.4l-0.4,12.8L20.5,424.1z M41.8,406.8l3.1,10.1c2,6.5,6,9.7,10.5,9.8
			c6.9,0.2,9.6-4.8,9.9-11.5c0.3-8.4-4.6-15.3-13-15.5l-14.8-0.5C39.3,400.9,40.8,403.5,41.8,406.8z"/>
		<path class="st0" d="M74,376.7l-1.2-9l-43.5-10.8l-5.3,7.4l-0.3-0.1l4.9-19.7l13.5,3.4c-3.8-2.3-6.8-5.7-8.5-9.8
			c-1.7-4.1-1.9-8.7-0.8-13c3.1-12.3,11.7-16.5,23.7-13.6l28.4,7.1l5.3-7.4l0.3,0.1l-6.9,27.8l-0.3-0.1l-1.2-9l-27.6-6.9
			c-8.4-2.1-14.8-1.1-17.1,8.1c-2.5,9.9,5.9,16.9,12.8,18.6l25.5,6.3l5.3-7.4l0.3,0.1l-6.9,27.8L74,376.7z"/>
		<path class="st0" d="M60.7,252.5l4.5-7.8L53,224.4l0.2-0.3l18,10.5l8-13.9l1.4,0.8l-8,13.9l29.4,17.1c5.9,3.4,10.1,1.5,12.7-3.1
			c2.9-5,0.8-11.6-2.6-14.9l0.2-0.4c7.8,4.9,11.3,14.8,6.5,23.1c-4.3,7.5-12.5,11.4-20.6,6.7l-31.5-18.3l-4.5,7.8L60.7,252.5z"/>
		<path class="st0" d="M107.3,181.3c10.6-13,27.7-16.3,39.7-6.6c11.9,9.8,12.1,27.3,1.5,40.2s-27.7,16.3-39.7,6.5
			C96.8,211.7,96.7,194.2,107.3,181.3z M147.3,214c6.4-7.9,3.5-20.9-7.8-30.1c-11.3-9.2-24.5-9.5-31-1.6s-3.6,20.8,7.7,30
			C127.5,221.6,140.8,221.9,147.3,214z"/>
		<path class="st0" d="M197.8,162.4l5-7.5l-37.3-54.2l-8.8,2l-0.1-0.2l27.6-19c13.7-9.4,25.4-10.6,32-1c5.1,7.4,2,15.9-6,23.8
			c13.1-7,24.5-6,30.8,3.1c7.1,10.4,2.3,22.1-12.1,32L198,162.6L197.8,162.4z M199.6,112.9c8.5-5.8,12.7-14.3,6.5-23.4
			c-6.3-9.1-15.5-8.3-24-2.5l-7.8,5.4l17.7,25.8L199.6,112.9z M224.8,142c9.2-6.3,12-16.5,5.7-25.6s-18.8-10-29.1-2.9l-8.6,5.9
			l20.8,30.3L224.8,142z"/>
		<path class="st0" d="M248.5,69.5l20.2-9.2c7.6-3.5,16.1-1,19,5.4l14.8,32.4l9-0.5l0.1,0.3l-18,8.2l-6.4-14
			c1.7,8.2-2.8,18.8-12.1,23.1c-9.3,4.2-18.1,3-21.7-4.9c-2.9-6.4,0.1-12.7,4.7-17.1l14.1-13.4c4.1-3.9,5.9-8.3,4-12.4
			c-1.9-4.3-7.2-5.7-12.9-3.2l-9,4.1l0.1,14.6l-11.6,5.3L248.5,69.5z M273.5,80.9l-7.6,7.3c-4.9,4.7-6,9.7-4.1,13.8
			c2.9,6.3,8.6,6.5,14.7,3.7c7.7-3.5,11.6-10.9,8.1-18.6l-6.1-13.5C277.7,76,276,78.5,273.5,80.9z"/>
		<path class="st0" d="M347.2,33.6l2.8,9.6c-3.6,0.5-7.2,1.2-10.7,2.3c-10.2,3-13.6,12.6-11.5,20l6.5,22.2l9,0.8l0.1,0.3l-27.5,8.1
			l-0.1-0.3l7.1-5.6l-11.4-38.8l-8.1,2.4l-0.1-0.3l16.5-12.9l0.8-0.2l5.2,17.7c-0.7-7.4,5.3-21.1,15.4-24.1
			C343.2,34.2,345.2,33.8,347.2,33.6z"/>
		<path class="st0" d="M363.5,71.8c3.7-0.8,7.2,1.3,7.9,4.6c0.7,3.3-1.7,6.7-5.3,7.5c-3.7,0.8-7.2-1.3-7.9-4.6
			C357.5,76.1,359.9,72.6,363.5,71.8z"/>
		<path class="st0" d="M414.4,73.8l8.4-3.5l-1-65.8l-8.5-3.2V1.1L442,0.7v0.2l-8.4,3.5l0.5,32.6l37-0.5l-0.5-32.6l-8.5-3.2V0.4
			L490.8,0v0.2l-8.4,3.5l1,65.8l8.5,3.2V73l-28.7,0.4v-0.3l8.4-3.5L471.1,38l-37,0.5l0.5,31.6l8.5,3.2v0.3L414.4,74L414.4,73.8z"/>
		<path class="st0" d="M519.6,25.4l21.9,3.7c8.2,1.4,13.9,8.3,12.8,15.2l-5.9,35.2l7.8,4.7l-0.1,0.3l-19.5-3.3l2.6-15.2
			c-3.2,7.7-12.9,14-22.9,12.3s-16.6-7.7-15.2-16.2c1.2-7,7.2-10.4,13.4-11.5l19.2-3.2c5.6-1,9.5-3.6,10.2-8
			c0.8-4.6-2.8-8.8-8.9-9.9l-9.8-1.7L517,40l-12.6-2.1L519.6,25.4z M533.9,48.9l-10.4,1.7c-6.7,1.1-10.4,4.7-11.1,9.1
			c-1.1,6.8,3.5,10.2,10.1,11.3c8.3,1.4,15.7-2.5,17.1-10.9l2.5-14.6C540.1,47.2,537.3,48.3,533.9,48.9L533.9,48.9z"/>
		<path class="st0" d="M560.1,84.9l9-0.4L583.7,42l-6.9-5.9l0.1-0.3l19.2,6.6l-4.5,13.2c2.6-3.6,6.3-6.3,10.5-7.6s8.8-1.2,13,0.3
			c11.9,4.1,15.4,13.1,11.4,24.8l-9.5,27.7l6.9,5.9l-0.1,0.3l-27.1-9.3l0.1-0.3l9-0.4l9.2-26.9c2.8-8.2,2.4-14.7-6.5-17.8
			c-9.6-3.3-17.3,4.4-19.6,11.1l-8.5,24.9l6.9,5.9l-0.1,0.3L560,85.2L560.1,84.9z"/>
		<path class="st0" d="M673.7,74.4c8.8,4.9,12.5,13.4,11.8,20l13.7-24.9l-5.8-7l0.2-0.3l17.7,9.8l-33.5,60.7l5.8,7l-0.1,0.3
			l-17.7-9.8l5.4-9.9c-5.2,4.1-14.4,5.5-23.2,0.7c-11.6-6.4-15.4-21.5-8.1-34.8C647.3,72.8,662.1,68,673.7,74.4z M653.9,119.3
			c8.2,4.5,17.5,0.8,20.9-5.4l7.2-13.2c3.4-6.2,1.6-16-6.6-20.5c-7.9-4.4-17.3-1.2-24.5,12C643.6,105.4,646,114.9,653.9,119.3z"/>
		<path class="st0" d="M748.5,124.6l6.6,6.1l22.6-7.6l0.3,0.2l-14.1,15.3l11.8,10.9l-1.1,1.2L762.7,140l-23,25
			c-4.6,5-3.7,9.5,0.2,13.1c4.2,3.9,11.1,3.3,15.1,0.8l0.3,0.3c-6.5,6.5-16.9,7.8-23.9,1.3c-6.4-5.9-8.4-14.7-2.1-21.6L754,132
			l-6.6-6.1L748.5,124.6z"/>
		<path class="st0" d="M808,185.3c10.4,13.1,10.1,30.6-2,40.2c-12.1,9.6-29.2,6-39.6-7.1c-10.4-13.1-10.1-30.6,2-40.2
			C780.4,168.6,797.5,172.2,808,185.3z M767.5,217.5c6.3,8,19.7,7.8,31.1-1.3c11.4-9.1,14.5-22,8.1-30c-6.3-8-19.6-7.9-31,1.2
			C764.3,196.5,761.2,209.5,767.5,217.5L767.5,217.5z"/>
		<path class="st0" d="M807.5,277l6,6.8l61.9-22.2l0.3-9.1l0.2-0.1l9.7,27l-0.2,0.1l-6-6.8l-30.7,11l12.5,34.8l30.7-11l0.3-9.1
			l0.2-0.1l9.7,27l-0.2,0.1l-6-6.8L834,340.9l-0.3,9.1l-0.3,0.1l-9.7-27l0.3-0.1l6,6.8l29.7-10.7l-12.5-34.8L817.5,295l-0.3,9.1
			l-0.3,0.1l-9.7-27L807.5,277z"/>
		<path class="st0" d="M889.2,377.9c1.5,12.2-3.2,24-12.8,28.8l-5.5-45.7c-2.3-0.4-4.6-0.4-6.8-0.1c-12.7,1.5-20.3,13.4-18.8,26.4
			c1.4,11.7,9.8,20.9,19.8,21.7v0.4c-13.8,1.4-26.9-10-28.8-25.9c-1.9-15.9,7.7-30.3,22.7-32.1C874.8,349.4,887.2,361.4,889.2,377.9
			z M876.5,395c7.6-3.5,12-9.7,11.1-17.1c-0.9-7.6-6.5-14.4-15.1-16.6L876.5,395z"/>
		<path class="st0" d="M891.2,433.8V456c0,8.3-5.8,15.1-12.8,15.1h-35.6l-3.3,8.4H839v-19.8h15.4c-8.1-1.9-15.9-10.4-15.9-20.6
			s4.8-17.6,13.4-17.6c7.1,0,11.5,5.4,13.5,11.4l6.4,18.4c1.9,5.4,5.1,8.8,9.6,8.8c4.7,0,8.2-4.2,8.2-10.4v-10l-13.3-6V421
			L891.2,433.8z M870.4,451.9l-3.4-10c-2.2-6.4-6.4-9.5-10.8-9.5c-6.9,0-9.5,5.2-9.5,11.8c0,8.4,5.1,15.1,13.5,15.1H875
			C873.1,457.7,871.6,455.1,870.4,451.9z"/>
		<path class="st0" d="M891,534.2h-10c0.6-3.6,0.9-7.2,0.8-10.9c0-10.7-8.2-16.6-15.9-16.6h-23.1l-3.3,8.4H839v-28.7h0.3l3.3,8.4
			H883v-8.4h0.3l7.7,19.4v0.8h-18.4c7.3,1.4,18.8,11,18.8,21.5C891.5,530.2,891.3,532.2,891,534.2z"/>
		<path class="st0" d="M891.2,539.1v9.1l20.8,11.5v0.4h-20.8v16h-1.7v-16h-34c-6.8,0-9.5,3.8-9.5,9c0,5.7,5.1,10.4,9.7,11.6v0.5
			c-9.2-0.4-17.2-7.1-17.2-16.7c0-8.7,5.1-16.2,14.5-16.2h36.5v-9L891.2,539.1z"/>
	</g>
</g>
</svg>
