<svg xmlns="http://www.w3.org/2000/svg" viewBox="0 0 181 180" xml:space="preserve"><path d="M73.7 76c.7-5 1.8-14 .9-18.5-.4-2-1.3-3.9-2.7-5.3-2.8-2.8-6.5-3.1-6.6-3.1-.2 0-.5.1-.6.2-.2.2-.3.4-.3.6-.9 10.9-2.7 25.2-8.8 38.3-7.5 16-9.4 38.1-3.8 43.7 2.5 2.5 12 3.7 22.1 2.8 12.3-1.1 22.5-4.9 28.1-10.5l.3-.3.6-.6c5-4.9 28.9-29.3 31.6-32.1 1.6-1.7 1.7-4.1.2-5.8l-.2-.2c-1.3-1.3-3.7-1.9-6.1-.3-2.1 1.5-9 6-14.4 9.5h-.1l-.2-.2v-.1c6.3-6.8 17.2-18.5 19.3-20.9 2.2-2.4 1.7-5.1.3-6.6l-.1-.1c-1.4-1.4-4.2-2.1-6.8 0-1.6 1.2-8.1 6.3-19.9 15.6h-.1l-.2-.2v-.1c7.4-8.3 20.1-22.5 22-24.8 2.3-2.7 1.7-5.6.1-7.2l-.1-.1c-1.6-1.5-4.5-2.1-7.1.2-1.7 2.2-14.1 13.2-24.2 22.1h-.1l-.2-.2v-.1c6.5-8.2 14.7-18.3 16.5-20.4 2.3-2.7 1.8-5.4.3-7l-.1-.1c-1.6-1.5-4.6-1.8-7 .6L73.6 76.4l.1-.4zm26.6 46.7c-5.3 5.2-14.9 8.8-26.4 9.8-10.2.9-18.5-.6-20.3-2.5-5.4-5.5-2.5-27.8 3.7-41.1 6.2-13.2 8-27 8.9-37.6v-.2h.2c1.6.3 3.1 1.1 4.3 2.2 1.1 1.2 1.9 2.7 2.2 4.3 1.2 5.9-1.3 20.4-1.4 21v.4l-.1.1h-.1c-1.1 0-2.2.1-3.3.3-.3.1-.5.2-.7.4-.1.1-.1.2-.1.3v.3c0 .2.1.3.2.5.1.1.3.2.5.3.2 0 .4.1.5 0 .8-.1 7.9-1.2 12.3 3.2 4.9 4.9 5 13.1.2 18.1-.5.5-.8 1.3-.4 1.8.5.5 1.2.1 1.7-.4 2.5-2.4 5.8-3.7 9.3-3.6 3.5.1 6.7 1.5 9.1 4 2.4 2.5 3.7 5.8 3.7 9.3s-1.5 6.7-4 9.1zm6.9-76.2c1.7-1.6 3.5-1.4 4.5-.5l.1.1c.8.8 1.3 2.5-.4 4.5-2.5 3-17.3 21.5-23.6 29.4l-.4.5-.1.1v.1l-.1.2v.6c0 .1 0 .1.1.2l.1.1.1.1h.1s.1 0 .1.1c.2.1.4.1.5.1.1 0 .1 0 .2-.1h.1l.1-.1s.1 0 .1-.1l.7-.6c7-6.2 30.1-26.6 32.8-29 1.9-1.7 3.7-1.2 4.6-.3 1 1 1.3 2.9-.2 4.7-1.2 1.4-7.1 8-28.6 32.2L97 90c-.1.1-.1.2-.2.3 0 .1-.1.2-.1.3 0 .1 0 .2.1.3 0 .1.1.1.1.2l.1.1.1.1c.1.1.2.1.3.2.1 0 .2.1.3.1h.3c.1 0 .2-.1.3-.1.2-.1 25.5-19.9 29-22.7 1.8-1.4 3.4-1.1 4.3-.2l.1.1c.8.8 1.1 2.4-.4 4.1-3 3.4-24.6 26.6-24.8 26.9l-.1.1-.1.1s-.1.1-.1.2v.6c0 .2.1.3.2.5v.1l.1.1h1c.1 0 .1 0 .2-.1l.3-.2c5.3-3.4 18-11.6 21.1-13.7 1.6-1.1 3-.7 3.7.1l.1.1c.6.7 1 2.1-.2 3.3-2.2 2.3-17.6 17.6-26.5 26.4l-.4.4.1-.5c.6-2.5.6-5.1-.1-7.6s-2-4.7-3.8-6.6c-4.2-4.2-10.9-5.4-16.7-2.9l-.3.1.1-.3c2.5-5.8 1.4-12.5-2.8-16.8-2.4-2.4-5.6-3.1-8.5-3.4h-.3l33.7-33.2z"></path></svg>